<svg width="35" height="35" viewBox="0 0 35 35" fill="none" xmlns="http://www.w3.org/2000/svg">
<rect width="35" height="35" fill="#D7FAF2"/>
<path d="M11.6183 12.3889C10.5536 12.1601 9.11842 11.8889 8.11833 12.3889C7.64532 12.6254 8.57318 16.7737 11.2125 19.3888C14.1533 22.3028 18.4735 24.1431 18.7124 22.8889C19.1657 20.5091 18.7124 20.8889 19.2124 20.3889C19.7124 19.8889 21.2124 22.5634 22.2124 22.8889C23.2124 23.2145 25.6183 23.3889 26.6183 22.8889C27.6183 22.3889 23.7124 18.3889 23.2124 17.8889C22.7124 17.3889 27.1183 12.0139 26.6183 12.0139C26.1183 12.0139 22.1183 11.8889 21.6183 12.3889C21.1183 12.8889 19.7124 18.3889 19.2124 17.3889C18.7124 16.3889 19.2124 12.8889 18.7124 12.3889C18.2124 11.8889 13.7124 11.8889 13.7124 12.3889C13.7124 12.8889 14.7124 12.5139 14.7124 13.5139V17.3889C14.0254 17.557 12.6831 12.6178 11.6183 12.3889Z" fill="#66A593"/>
<rect x="4.5" y="4.5" width="25" height="25" rx="4.5" stroke="#66A593"/>
</svg>
