<svg width="35" height="35" viewBox="0 0 35 35" fill="none" xmlns="http://www.w3.org/2000/svg">
<rect width="35" height="35" fill="#D7FAF2"/>
<path d="M30.5 17C30.5 23.9036 24.9036 29.5 18 29.5C11.0964 29.5 5.5 23.9036 5.5 17C5.5 10.0964 11.0964 4.5 18 4.5C24.9036 4.5 30.5 10.0964 30.5 17Z" stroke="#66A593"/>
<path d="M16 14C16.454 12.3136 15.4999 10 14 10C12.5 10 10.4999 11.5 10.5 14C10.5 16.5 19 24.5 22.5 24C26 23.5 26.2592 21.5 26 20.5C25.7407 19.5 22.9999 18 22 18.5C21 19 21.4999 20.5 20 20.5C18.5 20.5 14 17.5 14.5 16C15 14.5 15.7462 14.9428 16 14Z" fill="#66A593" stroke="#66A593"/>
<path d="M8.25354 24.5965L6.83709 29.8258L12.2593 28.2557" stroke="#66A593"/>
</svg>
