<?xml version="1.0" encoding="UTF-8" standalone="no"?>
<!-- Created with Inkscape (http://www.inkscape.org/) -->

<svg
   width="512"
   height="512"
   viewBox="0 0 512 512"
   version="1.1"
   id="svg1"
   inkscape:version="1.3.2 (091e20e, 2023-11-25, custom)"
   sodipodi:docname="ЛОГО.svg"
   xmlns:inkscape="http://www.inkscape.org/namespaces/inkscape"
   xmlns:sodipodi="http://sodipodi.sourceforge.net/DTD/sodipodi-0.dtd"
   xmlns="http://www.w3.org/2000/svg"
   xmlns:svg="http://www.w3.org/2000/svg">
  <sodipodi:namedview
     id="namedview1"
     pagecolor="#ffffff"
     bordercolor="#000000"
     borderopacity="0.25"
     inkscape:showpageshadow="2"
     inkscape:pageopacity="0.0"
     inkscape:pagecheckerboard="0"
     inkscape:deskcolor="#d1d1d1"
     inkscape:document-units="px"
     inkscape:zoom="1.4142136"
     inkscape:cx="276.8323"
     inkscape:cy="261.27595"
     inkscape:window-width="1920"
     inkscape:window-height="991"
     inkscape:window-x="-9"
     inkscape:window-y="-9"
     inkscape:window-maximized="1"
     inkscape:current-layer="g13"
     showgrid="false" />
  <defs
     id="defs1">
    <inkscape:path-effect
       effect="spiro"
       id="path-effect12"
       is_visible="true"
       lpeversion="1" />
    <inkscape:path-effect
       effect="spiro"
       id="path-effect11"
       is_visible="true"
       lpeversion="1" />
    <inkscape:path-effect
       effect="spiro"
       id="path-effect6"
       is_visible="true"
       lpeversion="1" />
    <inkscape:path-effect
       effect="spiro"
       id="path-effect5"
       is_visible="true"
       lpeversion="1" />
    <inkscape:path-effect
       effect="spiro"
       id="path-effect4"
       is_visible="true"
       lpeversion="1" />
    <inkscape:path-effect
       effect="spiro"
       id="path-effect3"
       is_visible="true"
       lpeversion="1" />
    <inkscape:path-effect
       effect="spiro"
       id="path-effect2"
       is_visible="true"
       lpeversion="1" />
    <inkscape:path-effect
       effect="spiro"
       id="path-effect1"
       is_visible="true"
       lpeversion="1" />
    <inkscape:path-effect
       effect="spiro"
       id="path-effect10"
       is_visible="true"
       lpeversion="1" />
    <inkscape:path-effect
       effect="spiro"
       id="path-effect9"
       is_visible="true"
       lpeversion="1" />
    <inkscape:path-effect
       effect="spiro"
       id="path-effect8"
       is_visible="true"
       lpeversion="1" />
    <inkscape:path-effect
       effect="spiro"
       id="path-effect7"
       is_visible="true"
       lpeversion="1" />
  </defs>
  <g
     inkscape:label="Слой 1"
     inkscape:groupmode="layer"
     id="layer1">
    <g
       id="g12"
       transform="matrix(1.0207452,0,0,1.0428216,-8.9287215,-30.881985)"
       style="stroke-width:1.93850227;stroke-dasharray:none">
      <g
         id="g27"
         transform="matrix(1.386388,0,0,1.6128857,-192.60082,-47.28487)"
         style="stroke-width:1.29634955;stroke-dasharray:none">
        <g
           id="g13"
           transform="matrix(1.0097657,0,0,1.0904839,-4.4480639,-51.261573)">
          <g
             id="g2">
            <path
               style="fill:none;stroke:#000000;stroke-width:2.44979;stroke-linecap:round;stroke-linejoin:round;stroke-dasharray:none;stroke-opacity:1;paint-order:markers fill stroke"
               d="m 443.80903,234.47378 c -1.77082,6.38199 -1.13836,13.40061 1.74485,19.36322 2.22487,4.60112 5.75881,8.56093 10.08056,11.28906 4.32176,2.72812 9.41786,4.2154 14.52862,4.23576 5.11076,0.0203 10.21968,-1.42685 14.5582,-4.12824 4.33853,-2.7014 7.89216,-6.64862 10.12072,-11.24795 3.00461,-6.20093 3.53024,-13.56164 1.43726,-20.12659"
               id="path1"
               inkscape:path-effect="#path-effect4"
               inkscape:original-d="m 443.80903,234.47378 c 0.11777,5.84638 1.27375,13.21956 1.74485,19.36322 0.47109,6.14365 32.85873,0.14863 49.2881,0.14863 16.42936,0 0.61285,-14.52793 1.43726,-20.12659"
               transform="matrix(0.95833167,-0.24034479,0.33951398,0.95833167,-63.59111,124.17339)"
               sodipodi:nodetypes="cssc" />
            <g
               id="g1">
              <path
                 id="rect5-3-3"
                 style="fill:none;stroke:#000000;stroke-width:2.55514;stroke-linecap:round;stroke-linejoin:round;stroke-dasharray:none;paint-order:markers fill stroke"
                 d="m 488.83603,229.11968 2.38138,-0.56189 1.62169,4.86597 -2.38136,0.56188 z m -48.06658,11.57149 2.38136,-0.56188 1.6217,4.86598 -2.3814,0.56179 z m 3.55201,-7.78463 c 0.0853,0.2646 0.31926,0.46354 0.46303,0.70121 0.0627,0.10352 0.0812,0.24436 0.11901,0.35785 0.0958,0.28614 0.19062,0.5725 0.28641,0.85864 0.26609,0.79912 0.53267,1.59813 0.79885,2.39723 0.13159,0.39346 0.26222,0.78717 0.39352,1.1807 0.0507,0.15339 0.0998,0.35656 0.16643,0.50103 0.0179,0.0362 0.0612,0.0607 0.0783,0.0973 0.1322,0.27534 0.23841,0.56196 0.37124,0.83863 0.0654,0.13637 0.0962,0.28724 0.14321,0.42933 0.14966,0.44926 0.26593,0.92086 0.45303,1.35962 0.0653,0.15338 0.16748,0.29404 0.24003,0.44508 0.0875,0.18223 0.13919,0.38332 0.23337,0.56243 0.19251,0.36746 0.3673,0.73554 0.55167,1.10481 0.13506,0.27043 0.36307,0.50667 0.5294,0.76272 0.057,0.0876 0.071,0.19359 0.13787,0.27621 0.17318,0.21533 0.38262,0.41884 0.53615,0.64535 0.0516,0.0761 0.0787,0.16239 0.12598,0.24047 0.0868,0.14349 0.24415,0.24833 0.35574,0.37915 0.017,0.0205 0.01,0.0497 0.0235,0.0716 0.10124,0.15895 0.21216,0.31421 0.33703,0.46078 0.30487,0.35764 0.81591,0.86504 1.31039,1.04155 0.0304,0.0107 0.0647,0.0105 0.097,0.0157 0.0505,0.0138 0.10252,0.0241 0.15141,0.0415 0.0383,0.0137 0.0691,0.0421 0.10893,0.0515 0.31833,0.0733 0.0429,-0.005 0.18201,-0.004 0.29927,0.001 0.56057,-0.007 0.8199,-0.15483 0.63868,-0.36381 0.60761,-0.71137 0.62035,-1.30413 0.007,-0.32521 0.0595,-0.72672 0.0182,-1.0463 -0.0283,-0.21992 -0.15576,-0.4681 -0.22642,-0.67983 -0.0524,-0.15865 -0.0645,-0.24969 -0.0886,-0.40361 -0.0496,-0.31614 -0.23845,-0.6165 -0.30963,-0.93035 -0.11173,-0.48798 0.006,-0.039 -0.0274,-0.49522 -0.007,-0.0997 -0.0464,-0.19656 -0.0528,-0.29628 -0.0246,-0.37757 -0.008,-0.82622 0.0131,-1.19945 0.003,-0.0554 0.0249,-0.10883 0.0373,-0.16317 0.0125,-0.0544 0.0262,-0.10862 0.0373,-0.16317 0.0424,-0.2065 0.17908,-1.79345 0.88901,-1.59907 0.10656,0.0291 0.13803,0.0654 0.21777,0.103 0.0128,0.006 0.0343,-0.0202 0.0425,-0.0101 0.0244,0.031 0.0109,0.0766 0.0357,0.10734 0.0767,0.0953 0.13398,0.077 0.22971,0.13878 0.15306,0.0987 -0.002,0.018 0.0902,0.13308 0.0236,0.0288 0.0882,0.021 0.10893,0.0515 0.0224,0.0322 0.011,0.0766 0.0357,0.10734 0.03,0.0369 0.0851,0.0542 0.12106,0.087 0.18143,0.1681 0.31291,0.43143 0.43918,0.62964 0.0462,0.0725 0.15707,0.29615 0.21613,0.37352 0.41569,0.54344 0.0541,-0.0751 0.57191,0.7527 0.2986,0.47735 0.54235,0.97912 0.81041,1.46829 0.2061,0.37615 0.48382,0.70583 0.72177,1.06467 0.85985,1.2966 -0.0697,-0.0776 0.45628,0.81857 0.55944,0.95309 -0.31746,-0.71164 0.3728,0.56812 0.0192,0.0336 0.0235,0.0716 0.0357,0.10734 0.0681,0.11257 0.12992,0.22799 0.20433,0.33771 0.2768,0.40832 0.54698,0.82505 0.82391,1.23355 0.0461,0.068 0.10441,0.1297 0.15663,0.19459 0.0822,0.10926 0.17223,0.21462 0.24681,0.3277 0.23421,0.35468 0.46318,0.71198 0.67924,1.07471 0.0663,0.1113 0.097,0.23579 0.16177,0.34776 0.31245,0.5441 0.27282,0.42894 0.47495,0.73698 0.16755,0.25522 0.31052,0.52181 0.48688,0.77277 0.13289,0.18916 0.33211,0.36987 0.5004,0.538 0.58521,0.58451 -0.038,-0.0138 0.30825,0.23587 0.16821,0.12157 0.3306,0.29381 0.53771,0.37484 0.0597,0.0233 0.13111,0.015 0.19403,0.0315 0.22228,0.0581 0.43156,0.15455 0.66013,0.19159 0.10227,0.0166 0.20833,-0.0142 0.30958,-0.0345 0.25772,-0.0518 0.53384,-0.0722 0.76542,-0.18068 0.61564,-0.2878 1.87471,-1.39952 2.23629,-1.68537 0.10547,-0.0837 0.23583,-0.14445 0.33502,-0.23341 0.8311,-0.74594 1.43187,-1.44642 2.02168,-2.32939 0.10819,-0.17992 0.21645,-0.3598 0.32468,-0.53971 0.0226,-0.0696 0.0309,-0.14384 0.0679,-0.20899 0.0317,-0.0559 0.10229,-0.0919 0.13433,-0.14746 0.0686,-0.12092 0.1091,-0.25226 0.14783,-0.38221 0.0488,-0.1634 0.005,-0.33698 0.0151,-0.50527 0.0279,-0.48483 0.0786,-0.47521 0.0302,-1.01052 -0.0274,-0.30257 -0.15902,-0.61478 -0.25556,-0.90452 -0.0903,-0.27244 -0.15901,-0.55749 -0.27383,-0.82301 -0.17563,-0.40464 -0.4591,-0.76194 -0.66056,-1.1563 -0.1031,-0.20182 -0.14214,-0.43563 -0.25717,-0.63399 -0.15779,-0.27243 -0.20191,-0.27928 -0.31836,-0.54236 -0.39279,-0.88734 -0.72986,-1.777 -1.03378,-2.68914 -0.0983,-0.29397 -0.22332,-0.59574 -0.29802,-0.8945 -0.11574,-0.46422 -0.0947,-0.95907 -0.15545,-1.42984 -0.054,-0.41846 -0.10144,-0.78923 -0.0839,-1.21516 0.008,-0.19839 0.0251,-0.57386 0.15616,-0.77009 0.18448,-0.27619 0.68739,-0.14258 0.95938,-0.14919 0.0295,-5.4e-4 0.0565,-0.0138 0.085,-0.0202 0.0789,0.007 0.15784,0.0126 0.23649,0.0214 0.0714,0.008 0.24499,0.047 0.29092,0.0472 0.0883,3.7e-4 0.16727,-0.0524 0.25537,-0.0596 0.18695,-0.0171 0.43787,-0.017 0.60725,-0.10472 0.37415,-0.19372 0.50378,-0.42028 0.72612,-0.71158 0.0181,-0.0231 0.0485,-0.0374 0.0734,-0.0557 0.12014,-0.14415 0.25247,-0.2816 0.36047,-0.43237 0.0273,-0.038 0.38401,-0.60158 0.41649,-0.67715 0.18646,-0.43397 0.21098,-0.85 0.2563,-1.29542 0.0267,-0.26269 -0.005,-0.54411 -0.0378,-0.80153 -0.0143,-0.11143 0.0651,-0.14503 0.056,-0.24476 -0.004,-0.0371 -0.0416,-0.0705 -0.0357,-0.10735 0.01,-0.0614 0.062,-0.1131 0.0799,-0.17324 0.0148,-0.0496 -0.0236,-0.10469 -0.005,-0.15315 0.0128,-0.0333 0.0531,-0.0574 0.0612,-0.0917 0.0116,-0.0508 -0.0274,-0.23162 -0.0104,-0.30628 0.0112,-0.0489 0.0806,-0.0884 0.0918,-0.13745 0.005,-0.0244 -0.0225,-0.047 -0.0235,-0.0716 -0.009,-0.2579 4.5e-4,-7e-4 0.0612,-0.0917 0.007,-0.0109 -0.0188,-0.0252 -0.0122,-0.0357 0.0498,-0.0746 0.19723,-0.0851 0.28574,-0.10604 m 14.00491,-7.06696 a 3.6598602,23.438488 76.854672 0 1 -21.64795,8.86793 3.6598602,23.438488 76.854672 0 1 -23.97188,1.89476 3.6598602,23.438488 76.854672 0 1 21.64796,-8.86793 3.6598602,23.438488 76.854672 0 1 23.97187,-1.89476 z m -45.72181,10.52385 13.90975,41.73777 0.0784,-0.0185 c -3.6e-4,0.005 -10e-4,0.0119 -0.002,0.0173 0.64372,1.925 11.35986,1.0803 23.93656,-1.88681 12.57669,-2.96717 22.13339,-7.09624 21.4937,-9.0222 -0.003,-0.005 -0.004,-0.01 -0.008,-0.0149 l 0.0332,-0.008 -13.86761,-41.61128 c -0.007,1.31988 -1.35719,2.17191 -2.70087,3.02614 l -6.45173,2.58927 -12.28655,3.48333 -10.16326,2.03711 -6.15411,0.80079 -4.12525,0.14119 -3.34976,-0.4452 z" />
              <g
                 id="g11"
                 style="stroke-width:2.47076922;stroke-dasharray:none">
                <path
                   style="fill:none;fill-opacity:1;stroke:#000000;stroke-width:2.47076922;stroke-linecap:round;stroke-linejoin:round;stroke-dasharray:none;stroke-opacity:1;paint-order:markers fill stroke"
                   d="m 486.80875,221.97433 c -6.59981,-30.28134 -23.59906,-58.195 -47.47448,-77.95559 -23.87542,-19.7606 -54.47479,-31.24215 -85.45607,-32.06497 -32.75122,-0.86983 -65.59636,10.16859 -91.54159,30.17469 -10.087,7.77798 -19.13312,16.82838 -29.13831,24.71131 -10.0052,7.88294 -21.26781,14.69839 -33.79419,17.00799 -5.22518,0.96341 -10.55959,1.12267 -15.85323,1.57867 -5.29365,0.456 -10.63652,1.23138 -15.51368,3.33944 -4.87716,2.10807 -9.29282,5.69129 -11.47055,10.53774 -1.08887,2.42323 -1.59131,5.12559 -1.31323,7.76762 0.27807,2.64203 1.35375,5.2143 3.1385,7.18212 1.49832,1.65201 3.46479,2.85264 5.58202,3.55366 2.11722,0.70103 4.38141,0.91263 6.60543,0.74586 4.44804,-0.33354 8.65669,-2.14304 12.56129,-4.29952 12.39458,-6.84544 22.41263,-17.23516 33.94112,-25.45584 16.86659,-12.02715 36.7489,-19.26227 53.74012,-31.1127 5.80194,-4.04653 11.28829,-8.64322 17.66424,-11.70656 3.18798,-1.53168 6.59238,-2.66626 10.10716,-3.06068 3.51478,-0.39441 7.14757,-0.0281 10.41236,1.33221 2.98925,1.24547 5.6724,3.37059 7.23427,6.20738 0.78093,1.41839 1.27373,3.00073 1.38488,4.61608 0.11115,1.61534 -0.16398,3.26205 -0.84097,4.73289 -0.71925,1.56267 -1.87737,2.90201 -3.23837,3.95413 -1.36099,1.05212 -2.92162,1.82611 -4.53981,2.40983 -3.65257,1.31757 -7.61739,1.69086 -11.17034,3.25733 -1.77648,0.78323 -3.44718,1.87871 -4.67497,3.38266 -1.22778,1.50395 -1.98203,3.44513 -1.83236,5.38083 0.094,1.21555 0.53842,2.39311 1.21256,3.40896 0.67413,1.01585 1.57303,1.87318 2.58048,2.5598 2.01491,1.37323 4.41952,2.05373 6.81356,2.51652 10.68559,2.06564 21.72974,0.18389 32.30027,-2.40695 10.57054,-2.59084 21.0496,-5.90542 31.90041,-6.74714 16.71873,-1.29691 33.84673,3.57313 47.38208,13.47224 13.53534,9.8991 23.3668,24.74592 27.19726,41.07153"
                   id="path8"
                   sodipodi:nodetypes="csssssssssssssc"
                   inkscape:original-d="M 486.80875,221.97433 C 460.17439,220.32442 380.51255,114.3108 353.8782,111.95377 c -26.63436,-2.35702 -75.51383,13.43983 -91.54159,30.17469 -16.02775,16.73486 -41.7193,28.28427 -62.9325,41.7193 -21.2132,13.43503 -27.34146,19.56329 -41.01219,30.40559 -13.67073,10.84231 16.73486,0 24.74874,0 8.01387,0 22.39171,-16.73486 33.94112,-25.45584 11.54941,-8.72098 35.35534,-21.2132 53.74012,-31.1127 18.38477,-9.89949 25.92724,-8.48528 38.18376,-13.43503 12.25652,-4.94974 5.18545,10.3709 7.77818,15.55635 2.59272,5.18545 -4.71405,4.47834 -7.77818,6.36396 -3.06413,1.88562 -11.78511,7.30677 -17.67767,12.02082 -5.89255,4.71404 6.59967,6.12826 10.6066,8.48528 4.00694,2.35702 54.72282,-4.84988 64.20068,-9.15409 10.94351,-4.9698 62.79422,58.07931 74.57934,54.54377"
                   inkscape:path-effect="#path-effect8" />
              </g>
              <path
                 id="text3"
                 style="font-size:69.7817px;font-family:Cormorant;-inkscape-font-specification:Cormorant;text-align:end;text-anchor:end;stroke-width:1.29635;stroke-dasharray:none"
                 d="m 356.09197,282.41822 q 0,3.03336 1.18953,5.28894 1.18954,2.25558 2.87993,3.81114 1.753,1.47779 4.75814,3.73337 3.31817,2.48892 5.07117,4.12226 1.81561,1.63335 3.06775,4.20004 1.31475,2.48891 1.31475,5.98894 0,3.73337 -1.50257,6.76673 -1.50257,3.03336 -4.4451,4.82227 -2.87993,1.71113 -6.94939,1.71113 -4.63293,0 -8.8276,-2.72225 -0.31304,-0.23334 -0.43825,-0.54446 -0.0626,-0.3111 -0.12522,-0.93334 l -0.81389,-10.57787 q -0.0626,-0.31111 0.25043,-0.38889 0.37564,-0.0778 0.50085,0.23334 0.93912,5.60004 3.63122,9.64453 2.75471,4.04448 7.26242,4.04448 3.13035,0 5.259,-2.10002 2.19125,-2.1778 2.19125,-6.84451 0,-3.50002 -1.25214,-5.98894 -1.18954,-2.56669 -3.00515,-4.20004 -1.75299,-1.71113 -4.82075,-4.04448 -3.00514,-2.1778 -4.75814,-3.81114 -1.75299,-1.71113 -2.94253,-4.20004 -1.18953,-2.48892 -1.18953,-5.83339 0,-3.88893 1.62779,-6.61118 1.69038,-2.80002 4.31988,-4.12226 2.69211,-1.40001 5.69725,-1.40001 3.88164,0 7.32503,1.86668 1.00171,0.46667 1.00171,1.32224 l 0.37564,8.94453 q 0,0.31112 -0.37564,0.31112 -0.31303,0 -0.37564,-0.31112 -0.18782,-2.41113 -1.18954,-4.90005 -1.00171,-2.56668 -3.00514,-4.27781 -1.94081,-1.78891 -4.75814,-1.78891 -3.50599,0 -5.25899,2.5667 -1.69039,2.4889 -1.69039,6.22227 z m 41.19542,35.54477 q 0.18782,0 0.31303,0.31112 0.12522,0.31111 -0.0626,0.46667 -2.31646,2.25557 -4.19467,3.18891 -1.81561,0.93335 -3.81903,0.93335 -2.62951,0 -4.3199,-1.4778 -1.69039,-1.47779 -1.69039,-4.90004 v -18.27794 q 0,-1.94447 -0.25042,-2.80003 -0.18783,-0.85556 -0.8139,-1.16668 -0.62607,-0.31112 -2.12864,-0.31112 -0.25043,0 -0.25043,-0.54444 0,-0.54445 0.25043,-0.54445 2.50428,0 4.06946,-1.55557 1.56518,-1.63335 1.81561,-4.27782 0,-0.31112 0.50085,-0.31112 0.43825,0 0.43825,0.31112 v 5.75561 q 3.94425,-0.0778 8.70239,-0.70001 0.12521,0 0.25042,0.54445 0.18783,0.46667 0.18783,1.16668 0,0.62222 -0.25043,1.32224 -0.18782,0.7 -0.43825,0.62222 -3.44339,-1.08889 -8.45196,-1.24446 v 19.36685 q 0,6.30006 4.94596,6.30006 2.75471,0 5.07117,-2.10002 z m 16.15259,4.97783 q -3.63121,0 -6.44853,-2.1778 -2.75471,-2.25558 -4.31989,-5.98895 -1.50257,-3.81114 -1.50257,-8.24452 0,-5.0556 1.94082,-8.55563 2.00342,-3.57782 5.07118,-5.28893 3.13035,-1.78891 6.32331,-1.78891 3.69382,0 6.44853,2.25558 2.75472,2.25557 4.19468,5.98894 1.50257,3.65559 1.50257,7.77785 0,4.82226 -1.81561,8.47785 -1.753,3.57781 -4.82074,5.60005 -3.00514,1.94447 -6.57375,1.94447 z m 1.753,-1.40002 q 3.38078,0 5.259,-3.03336 1.94081,-3.11114 1.94081,-9.4112 0,-4.82226 -1.31474,-8.63341 -1.25215,-3.81115 -3.506,-5.91116 -2.25386,-2.1778 -5.13379,-2.1778 -3.38078,0 -5.25899,3.03336 -1.81561,3.03336 -1.81561,8.71119 0,4.74449 1.25214,8.78897 1.25215,3.9667 3.506,6.30006 2.25386,2.33335 5.07118,2.33335 z m 30.99049,-30.41139 q 1.37736,0 2.62949,1.01112 1.25214,1.01113 1.25214,2.33335 0,1.01113 -0.56346,1.71113 -0.50085,0.62224 -1.50257,0.62224 -0.56346,0 -1.00171,-0.23334 -0.37564,-0.31112 -0.9391,-0.85557 -0.56347,-0.62222 -1.06433,-0.93334 -0.50086,-0.31112 -1.18954,-0.31112 -0.81389,0 -1.75299,0.85557 -0.8765,0.85556 -2.81732,3.65559 v 16.6446 q 0,2.33335 0.43825,3.42225 0.50086,1.0889 1.753,1.55557 1.25214,0.38889 3.94425,0.38889 0.18781,0 0.18781,0.46667 0,0.46667 -0.18781,0.46667 -2.06604,0 -3.31818,-0.0778 l -4.63293,-0.0778 -3.31817,0.0778 q -0.8765,0.0778 -2.37907,0.0778 -0.12522,0 -0.12522,-0.46667 0,-0.46667 0.12522,-0.46667 1.69039,0 2.50428,-0.38889 0.8139,-0.46667 1.12693,-1.55557 0.31303,-1.16667 0.31303,-3.42225 v -15.32237 q 0,-2.64447 -0.50085,-3.81114 -0.50086,-1.24446 -1.6904,-1.24446 -1.00171,0 -3.38078,1.16668 l -0.12521,0.0778 q -0.25043,0 -0.37564,-0.38889 -0.0626,-0.3889 0.18781,-0.46667 l 7.26243,-4.35559 q 0.37564,-0.15557 0.37564,-0.15557 0.56347,0 1.18953,1.86668 0.62608,1.78891 0.62608,4.66671 2.56689,-3.73336 4.06946,-5.13338 1.50257,-1.40001 2.87993,-1.40001 z m 52.02651,29.86694 q 0.18783,0 0.18783,0.46667 0,0.46667 -0.18783,0.46667 -1.43996,0 -2.31646,-0.0778 l -3.38078,-0.0778 -3.38078,0.0778 q -0.87651,0.0778 -2.31647,0.0778 -0.18782,0 -0.18782,-0.46667 0,-0.46667 0.18782,-0.46667 1.69039,0 2.50429,-0.38889 0.81389,-0.46667 1.12692,-1.55557 0.31304,-1.16667 0.31304,-3.42225 v -12.36678 q 0,-4.58893 -1.31475,-6.76673 -1.31475,-2.25558 -4.06946,-2.25558 -1.87822,0 -3.81903,1.32224 -1.87822,1.24446 -3.50601,3.57781 0.0626,0.38889 0.0626,1.24445 v 15.24459 q 0,2.33335 0.31303,3.42225 0.31303,1.0889 1.12692,1.55557 0.8139,0.38889 2.50429,0.38889 0.18782,0 0.18782,0.46667 0,0.46667 -0.18782,0.46667 -1.43997,0 -2.31646,-0.0778 l -3.38078,-0.0778 -3.38079,0.0778 q -0.8765,0.0778 -2.37907,0.0778 -0.12521,0 -0.12521,-0.46667 0,-0.46667 0.12521,-0.46667 1.6904,0 2.50429,-0.38889 0.87649,-0.46667 1.18953,-1.55557 0.31304,-1.0889 0.31304,-3.42225 v -12.36678 q 0,-4.58893 -1.31476,-6.76673 -1.31474,-2.25558 -4.06946,-2.25558 -1.87821,0 -3.75642,1.24446 -1.87821,1.24445 -3.44339,3.50003 v 16.6446 q 0,2.33335 0.31304,3.42225 0.31303,1.0889 1.12692,1.55557 0.81389,0.38889 2.50429,0.38889 0.12521,0 0.12521,0.46667 0,0.46667 -0.12521,0.46667 -1.50257,0 -2.37907,-0.0778 l -3.38079,-0.0778 -3.31817,0.0778 q -0.8765,0.0778 -2.37908,0.0778 -0.12521,0 -0.12521,-0.46667 0,-0.46667 0.12521,-0.46667 1.6904,0 2.50429,-0.38889 0.81389,-0.46667 1.12693,-1.55557 0.31303,-1.16667 0.31303,-3.42225 v -15.32237 q 0,-2.64447 -0.50085,-3.81114 -0.50086,-1.24446 -1.6904,-1.24446 -1.0017,0 -3.38078,1.16668 l -0.12521,0.0778 q -0.25043,0 -0.37564,-0.38889 -0.0626,-0.3889 0.18782,-0.46667 l 7.26242,-4.35559 q 0.37564,-0.15557 0.37564,-0.15557 0.56346,0 1.18954,1.86668 0.62607,1.78891 0.62607,4.58894 2.31646,-3.34448 4.57031,-4.90004 2.25386,-1.63335 4.69554,-1.63335 2.81732,0 4.50771,1.7889 1.753,1.71113 2.19125,5.13338 4.50771,-6.92228 9.45367,-6.92228 3.31818,0 5.07118,2.41113 1.75299,2.41114 1.75299,7.15562 v 15.01125 q 0,2.33335 0.31304,3.42225 0.31303,1.0889 1.12693,1.55558 0.81389,0.38888 2.50428,0.38888 z M 214.15181,203.77731 q 2.97858,0 6.01942,0.70563 3.04071,0.70563 4.84038,2.03849 0.55851,0.39201 0.68255,0.70563 0.12414,0.23521 0.18616,1.09765 l 0.74467,8.85959 q 0,0.15681 -0.3102,0.23521 -0.31032,0.0784 -0.37234,-0.15681 -1.36531,-6.03706 -5.08869,-8.85959 -3.72337,-2.90092 -9.12215,-2.90092 -4.71634,0 -8.25355,2.66571 -3.53721,2.58731 -5.46091,7.36993 -1.92371,4.7826 -1.92371,11.0549 0,7.2915 2.35806,13.48539 2.4202,6.19388 6.45389,9.80044 4.09571,3.60656 8.81195,3.60656 4.46805,0 7.75707,-3.05775 3.2889,-3.13613 5.02655,-9.56521 0,-0.15682 0.3102,-0.15682 0.43447,0 0.43447,0.23522 l -0.93084,8.85959 q -0.12415,0.94084 -0.2483,1.25446 -0.12404,0.31361 -0.68254,0.54882 -5.58506,2.97934 -11.79065,2.97934 -7.44674,0 -12.4733,-3.76337 -4.96454,-3.84178 -7.32271,-9.72203 -2.35806,-5.88027 -2.35806,-12.38776 0,-7.21312 3.16486,-12.85818 3.16487,-5.72344 8.37759,-8.85959 5.27475,-3.21453 11.17013,-3.21453 z m 32.82771,18.81683 q 1.36519,0 2.60636,1.01925 1.24117,1.01924 1.24117,2.3521 0,1.01924 -0.55851,1.72487 -0.49649,0.62724 -1.48936,0.62724 -0.5585,0 -0.99297,-0.23521 -0.37233,-0.31362 -0.93084,-0.86245 -0.55851,-0.62721 -1.05488,-0.94084 -0.49649,-0.31361 -1.17915,-0.31361 -0.80669,0 -1.73753,0.86244 -0.86883,0.86243 -2.79253,3.68496 v 16.77835 q 0,2.3521 0.43435,3.44975 0.49649,1.09765 1.73765,1.56807 1.24105,0.39203 3.90955,0.39203 0.18616,0 0.18616,0.47041 0,0.47043 -0.18616,0.47043 -2.04786,0 -3.28902,-0.0784 l -4.59221,-0.0784 -3.2889,0.0784 q -0.86882,0.0784 -2.35817,0.0784 -0.12415,0 -0.12415,-0.47043 0,-0.47041 0.12415,-0.47041 1.67551,0 2.48221,-0.39203 0.80681,-0.47042 1.11701,-1.56807 0.31032,-1.17606 0.31032,-3.44975 v -15.44548 q 0,-2.66572 -0.49648,-3.84177 -0.49638,-1.25447 -1.67552,-1.25447 -0.99287,0 -3.35104,1.17605 l -0.12404,0.0784 q -0.2483,0 -0.37233,-0.39203 -0.0616,-0.39201 0.18616,-0.47041 l 7.19845,-4.39061 q 0.37233,-0.15679 0.37233,-0.15679 0.55851,0 1.17916,1.88168 0.62052,1.80328 0.62052,4.70422 2.54434,-3.76337 4.03369,-5.17464 1.48935,-1.41126 2.85455,-1.41126 z m 27.36691,26.57879 q 0.18617,0 0.31021,0.3136 0.18617,0.31362 0.0616,0.47043 -2.17201,2.4305 -4.40603,3.52816 -2.17201,1.09765 -4.65422,1.09765 -3.66135,0 -6.32973,-2.0385 -2.60637,-2.1169 -3.97156,-5.56665 -1.36532,-3.44975 -1.36532,-7.44833 0,-4.6258 1.73765,-8.46759 1.79955,-3.92016 4.84038,-6.11544 3.04072,-2.27372 6.7641,-2.27372 3.35104,0 5.21272,2.1169 1.86169,2.03849 1.86169,5.64505 0,0.94084 -0.18617,1.41127 -0.12415,0.47041 -0.5585,0.47041 l -15.26584,0.0784 q -0.31032,2.1169 -0.31032,4.07698 0,6.8211 2.60636,11.13329 2.60637,4.2338 7.13655,4.2338 3.47507,0 6.45377,-2.58732 z m -9.12226,-24.93231 q -2.54435,0 -4.28188,1.88168 -1.67552,1.80327 -2.35818,5.17462 l 11.54246,-0.3136 q -0.0616,-3.21455 -1.3652,-4.93943 -1.30318,-1.80327 -3.5372,-1.80327 z m 37.23374,25.16751 q 0.24818,0 0.3102,0.39202 0.12415,0.31362 -0.12403,0.47041 l -6.39187,3.84178 q -0.37234,0.15681 -0.55851,0.15681 -0.80669,0 -1.42721,-1.33285 -0.62064,-1.33287 -0.80682,-3.68498 l -3.8474,2.58732 q -1.92382,1.25445 -3.16487,1.80329 -1.24116,0.54881 -2.42019,0.54881 -1.92383,0 -2.9787,-1.25444 -0.99298,-1.33287 -0.99298,-3.37137 0,-2.1169 1.30318,-3.37134 1.30318,-1.25446 4.5922,-2.74412 l 7.44675,-3.29294 v -6.5075 q 0,-5.17462 -1.055,-7.29152 -1.05487,-2.11689 -2.9787,-2.11689 -2.10986,0 -3.2889,1.96008 -1.11701,1.88169 -1.36531,4.5474 -0.18617,1.33287 -0.68254,2.19529 -0.43447,0.78405 -1.61351,0.78405 -0.99286,0 -1.55137,-0.62724 -0.5585,-0.62723 -0.5585,-1.72487 0,-1.80328 1.86169,-3.84176 1.86169,-2.0385 4.46805,-3.44977 2.66838,-1.41126 4.77825,-1.41126 2.48232,0 3.97168,2.19529 1.48934,2.1169 1.48934,6.42909 v 13.87742 q 0,2.74412 0.55851,4.07698 0.55851,1.25445 1.79956,1.25445 1.05499,0 3.10285,-1.09764 z m -9.06025,-1.25446 v -0.47042 -6.58588 l -6.39175,3.05773 q -1.42733,0.62722 -2.04786,1.56806 -0.55851,0.86244 -0.55851,2.1953 0,1.64647 0.74468,2.58731 0.74467,0.94085 1.98572,0.94085 0.99298,0 2.48233,-0.86243 z m 28.66998,1.48967 q 0.18617,0 0.31032,0.31362 0.12415,0.3136 -0.0616,0.47041 -2.29616,2.27372 -4.15785,3.21456 -1.79955,0.94084 -3.78539,0.94084 -2.60636,0 -4.28188,-1.48968 -1.67551,-1.48966 -1.67551,-4.93942 v -18.42481 q 0,-1.96009 -0.24819,-2.82253 -0.18617,-0.86244 -0.80681,-1.17604 -0.62052,-0.31362 -2.10988,-0.31362 -0.24818,0 -0.24818,-0.54884 0,-0.54881 0.24818,-0.54881 2.48222,0 4.0337,-1.56808 1.55137,-1.64646 1.79955,-4.31218 0,-0.31362 0.49649,-0.31362 0.43436,0 0.43436,0.31362 v 5.80186 q 3.90954,-0.0784 8.62589,-0.70563 0.12404,0 0.24819,0.54881 0.18617,0.47043 0.18617,1.17606 0,0.62723 -0.24819,1.33287 -0.18617,0.70563 -0.43447,0.62721 -3.41306,-1.09764 -8.37759,-1.25445 v 19.52247 q 0,6.35068 4.90252,6.35068 2.73039,0 5.02655,-2.1169 z m 4.90241,3.99859 q -0.12416,0 -0.12416,-0.47043 0,-0.47041 0.12416,-0.47041 1.67551,0 2.4822,-0.39203 0.86883,-0.47042 1.17915,-1.56807 0.31021,-1.09765 0.31021,-3.44975 v -14.66145 q 0,-2.82253 -0.49638,-4.07699 -0.43447,-1.25444 -1.55148,-1.25444 -1.11702,0 -2.79254,1.09764 h -0.12402 q -0.24831,0 -0.37234,-0.39201 -0.0616,-0.39203 0.18616,-0.54883 l 8.00526,-4.70422 q 0.12404,-0.1568 0.24818,-0.1568 0.18618,0 0.31033,0.23522 0.18616,0.23521 0.18616,0.47041 0,0.54883 -0.0616,3.13614 -0.0616,2.58732 -0.0616,6.11548 v 14.73985 q 0,2.3521 0.31032,3.44975 0.3102,1.09765 1.11701,1.56807 0.8067,0.39203 2.48221,0.39203 0.18617,0 0.18617,0.47041 0,0.47043 -0.18617,0.47043 -1.42733,0 -2.29604,-0.0784 l -3.35103,-0.0784 -3.35104,0.0784 q -0.86883,0.0784 -2.35818,0.0784 z m 5.21271,-40.06419 q -1.30318,0 -2.04785,-0.86244 -0.68266,-0.94084 -0.68266,-2.58731 0,-1.48967 0.68266,-2.35212 0.74467,-0.86243 2.04785,-0.86243 1.24117,0 1.92371,0.86243 0.68266,0.86245 0.68266,2.35212 0,1.64647 -0.68266,2.58731 -0.68254,0.86244 -1.92371,0.86244 z m 35.12376,9.80043 q 0.12415,0 0.12415,0.47043 0,0.47042 -0.12415,0.47042 -1.55137,0 -2.66838,1.25445 -1.05499,1.25446 -2.10988,4.469 l -7.75706,23.52105 q -0.0616,0.31362 -0.68266,0.31362 -0.62053,0 -0.68254,-0.31362 l -8.68791,-23.67785 q -1.24117,-3.37135 -2.10987,-4.469 -0.80682,-1.09765 -2.04786,-1.09765 -0.18617,0 -0.18617,-0.47042 0,-0.47043 0.18617,-0.47043 1.17903,0 1.86168,0.0784 l 2.4202,0.0784 4.03358,-0.0784 q 0.93084,-0.0784 2.48232,-0.0784 0.18617,0 0.18617,0.47043 0,0.47042 -0.18617,0.47042 -3.72337,0 -3.72337,1.88168 0,0.54882 0.24819,1.17606 l 7.57089,20.30649 5.83325,-18.03279 q 0.43436,-1.48967 0.43436,-2.2737 0,-1.56809 -1.17903,-2.27371 -1.17903,-0.78403 -3.72338,-0.78403 -0.12415,0 -0.12415,-0.47042 0,-0.47043 0.12415,-0.47043 1.67552,0 2.54435,0.0784 l 3.72337,0.0784 2.23403,-0.0784 q 0.62052,-0.0784 1.98572,-0.0784 z m 3.47518,30.26376 q -0.12414,0 -0.12414,-0.47043 0,-0.47041 0.12414,-0.47041 1.67552,0 2.48222,-0.39203 0.86882,-0.47042 1.17914,-1.56807 0.3102,-1.09765 0.3102,-3.44975 v -14.66145 q 0,-2.82253 -0.49637,-4.07699 -0.43447,-1.25444 -1.55148,-1.25444 -1.11701,0 -2.79253,1.09764 h -0.12404 q -0.24829,0 -0.37233,-0.39201 -0.0616,-0.39203 0.18617,-0.54883 l 8.00525,-4.70422 q 0.12403,-0.1568 0.24818,-0.1568 0.18618,0 0.31032,0.23522 0.18618,0.23521 0.18618,0.47041 0,0.54883 -0.0616,3.13614 -0.0616,2.58732 -0.0616,6.11548 v 14.73985 q 0,2.3521 0.31032,3.44975 0.3102,1.09765 1.11702,1.56807 0.80668,0.39203 2.4822,0.39203 0.18618,0 0.18618,0.47041 0,0.47043 -0.18618,0.47043 -1.42733,0 -2.29604,-0.0784 l -3.35104,-0.0784 -3.35103,0.0784 q -0.86882,0.0784 -2.35818,0.0784 z m 5.21273,-40.06419 q -1.30318,0 -2.04785,-0.86244 -0.68266,-0.94084 -0.68266,-2.58731 0,-1.48967 0.68266,-2.35212 0.74467,-0.86243 2.04785,-0.86243 1.24116,0 1.92371,0.86243 0.68266,0.86245 0.68266,2.35212 0,1.64647 -0.68266,2.58731 -0.68255,0.86244 -1.92371,0.86244 z m 27.73902,36.0656 q 0.18617,0 0.31032,0.31362 0.12415,0.3136 -0.0616,0.47041 -2.29615,2.27372 -4.15784,3.21456 -1.79955,0.94084 -3.78539,0.94084 -2.60636,0 -4.28188,-1.48968 -1.67552,-1.48966 -1.67552,-4.93942 v -18.42481 q 0,-1.96009 -0.24818,-2.82253 -0.18618,-0.86244 -0.80681,-1.17604 -0.62052,-0.31362 -2.10988,-0.31362 -0.24818,0 -0.24818,-0.54884 0,-0.54881 0.24818,-0.54881 2.48222,0 4.0337,-1.56808 1.55136,-1.64646 1.79955,-4.31218 0,-0.31362 0.49649,-0.31362 0.43436,0 0.43436,0.31362 v 5.80186 q 3.90953,-0.0784 8.62589,-0.70563 0.12403,0 0.24818,0.54881 0.18618,0.47043 0.18618,1.17606 0,0.62723 -0.24819,1.33287 -0.18617,0.70563 -0.43447,0.62721 -3.41306,-1.09764 -8.37759,-1.25445 v 19.52247 q 0,6.35068 4.90251,6.35068 2.73041,0 5.02656,-2.1169 z m 28.42179,-26.26517 q 0.12404,0 0.12404,0.47043 0,0.47042 -0.12404,0.47042 -1.67552,0 -2.79253,1.41127 -1.05499,1.33285 -2.04785,4.62579 l -7.5709,25.48114 q -2.29605,7.60514 -4.3439,11.83892 -1.98584,4.31219 -4.15784,6.11547 -2.10988,1.88168 -4.90241,1.88168 -1.36519,0 -2.23403,-0.78403 -0.93083,-0.78403 -0.93083,-2.27371 0,-1.09763 0.5585,-1.72487 0.55851,-0.62722 1.36519,-0.62722 0.80682,0 1.36532,0.23521 0.55851,0.23522 1.17903,0.78403 0.12415,0.0784 0.68266,0.47043 0.62053,0.392 1.48935,0.392 1.48935,0 2.79253,-1.64646 1.3652,-1.64647 2.85454,-5.56665 1.48936,-3.84177 3.59923,-10.74128 l -9.43247,-24.30507 q -1.36531,-3.44976 -2.17201,-4.469 -0.74467,-1.09765 -1.9237,-1.09765 -0.12415,0 -0.12415,-0.47042 0,-0.47043 0.12415,-0.47043 l 2.10987,0.0784 q 0.74468,0.0784 2.04786,0.0784 l 3.97156,-0.0784 q 0.86883,-0.0784 2.42019,-0.0784 0.18617,0 0.18617,0.47043 0,0.47042 -0.18617,0.47042 -1.73753,0 -2.66838,0.39202 -0.93084,0.39201 -0.93084,1.41126 0,0.62722 0.24818,1.25446 l 8.25356,21.32574 4.96442,-18.11121 q 0.49649,-1.88168 0.49649,-2.97933 0,-1.80329 -1.11701,-2.50891 -1.11701,-0.78403 -3.66136,-0.78403 -0.12403,0 -0.12403,-0.47042 0,-0.47043 0.12403,-0.47043 1.67552,0 2.54435,0.0784 l 3.72337,0.0784 2.23402,-0.0784 q 0.62053,-0.0784 1.98584,-0.0784 z" />
              <path
                 style="fill:none;stroke:#000000;stroke-width:1.88823916;stroke-linecap:round;stroke-linejoin:round;stroke-dasharray:none;stroke-opacity:1;paint-order:markers fill stroke"
                 d="m 235.17264,300.34318 c -0.13881,0.76805 -0.51839,1.48285 -1.03399,2.06878 -0.5156,0.58594 -1.1636,1.04684 -1.86127,1.39673 -1.39534,0.69978 -2.96356,0.95678 -4.50155,1.22367 -1.538,0.2669 -3.1051,0.56365 -4.46522,1.32963 -0.68007,0.38298 -1.30061,0.88316 -1.77269,1.50469 -0.47208,0.62154 -0.7912,1.36808 -0.85569,2.1459 -0.0645,0.7783 0.12586,1.56318 0.45331,2.27219 0.32745,0.70901 0.78807,1.34862 1.28264,1.95303 0.98916,1.20882 2.14524,2.32712 2.76107,3.76254 0.44459,1.03628 0.57903,2.1807 0.59111,3.30827 0.0121,1.12756 -0.093,2.25329 -0.10495,3.38086 -0.0119,1.12756 0.0728,2.2723 0.45034,3.33486 0.37751,1.06256 1.07422,2.04348 2.06152,2.58826 0.99068,0.54665 2.19556,0.61161 3.30062,0.36849 1.10506,-0.24313 2.12623,-0.77236 3.09145,-1.3628 0.96522,-0.59044 1.89044,-1.24807 2.88715,-1.78364 0.99671,-0.53556 2.08238,-0.95054 3.21252,-1.00573 0.95168,-0.0465 1.90634,0.16579 2.78088,0.54399 0.87455,0.3782 1.67217,0.91896 2.39859,1.53555 1.45283,1.23317 2.62124,2.76068 3.93371,4.14229 1.31247,1.38162 2.83775,2.65615 4.67282,3.16992 0.91753,0.25689 1.90009,0.31224 2.82604,0.0875 0.92594,-0.22468 1.79093,-0.73904 2.3754,-1.49154 0.45715,-0.58858 0.73379,-1.30776 0.83771,-2.04574 0.10391,-0.73799 0.0392,-1.49438 -0.14055,-2.21765 -0.35948,-1.44653 -1.16229,-2.73972 -2.00317,-3.97041 -0.84088,-1.2307 -1.73901,-2.4392 -2.32918,-3.80792 -0.29508,-0.68436 -0.51071,-1.40684 -0.58912,-2.14797 -0.0784,-0.74113 -0.0169,-1.50199 0.22695,-2.20624 0.3013,-0.87019 0.87562,-1.63361 1.58502,-2.22078 0.70939,-0.58718 1.55029,-1.0034 2.42818,-1.28148 1.75578,-0.55618 3.63018,-0.56633 5.47151,-0.60636 1.84132,-0.04 3.72488,-0.12362 5.43364,-0.81082 0.85437,-0.34361 1.65511,-0.83929 2.2935,-1.50298 0.63839,-0.66368 1.10914,-1.5005 1.27592,-2.40615 0.2389,-1.29727 -0.16027,-2.65466 -0.8757,-3.76287 -0.71544,-1.10821 -1.72595,-1.99481 -2.78767,-2.77758 -1.06171,-0.78278 -2.18782,-1.4773 -3.22484,-2.29252 -1.03701,-0.81522 -1.99576,-1.76877 -2.6055,-2.93847 -0.53399,-1.02439 -0.78026,-2.17658 -0.89593,-3.32599 -0.11567,-1.14941 -0.10636,-2.3073 -0.16025,-3.46126 -0.0539,-1.15395 -0.17342,-2.31603 -0.53643,-3.41273 -0.36301,-1.0967 -0.98653,-2.13212 -1.90508,-2.83268 -0.81938,-0.62493 -1.8444,-0.957 -2.87376,-1.00554 -1.02936,-0.0485 -2.06193,0.17797 -3.00898,0.58419 -1.89411,0.81246 -3.41068,2.3023 -4.76556,3.85537 -1.35489,1.55307 -2.60894,3.21473 -4.19433,4.53165 -0.79269,0.65846 -1.66725,1.22705 -2.62239,1.61389 -0.95514,0.38683 -1.99388,0.58814 -3.02143,0.51025 -1.07147,-0.0812 -2.10749,-0.46403 -3.02675,-1.02047 -0.91925,-0.55643 -1.72676,-1.28296 -2.45089,-2.07686 -1.44828,-1.58779 -2.57213,-3.44464 -3.97363,-5.07387 -0.70075,-0.81462 -1.47422,-1.57427 -2.35957,-2.18319 -0.88536,-0.60892 -1.88758,-1.06469 -2.9479,-1.23895 -1.06033,-0.17426 -2.18054,-0.0564 -3.14419,0.419 -0.96365,0.47543 -1.75646,1.3223 -2.08385,2.34576 -0.28768,0.89931 -0.20793,1.89618 0.14191,2.77318 0.34984,0.877 0.95784,1.6376 1.68346,2.24175 1.45123,1.20829 3.31362,1.78317 5.12997,2.29984 1.81634,0.51667 3.68614,1.02479 5.21324,2.13565 0.76355,0.55543 1.42928,1.26104 1.86333,2.09956 0.43406,0.83852 0.62643,1.81475 0.4585,2.7439 z"
                 id="path6"
                 inkscape:path-effect="#path-effect11"
                 inkscape:original-d="m 235.17264,300.34318 c 4.83014,4.76463 -9.82683,6.44627 -14.49041,9.6694 -4.66358,3.22313 2.99801,5.32517 4.49702,7.98776 1.49901,2.66258 2.16524,8.26803 2.99802,12.61225 0.83278,4.34422 8.49438,-2.38232 12.49174,-3.78368 3.99736,-1.40136 12.49173,5.32518 18.98744,7.98776 6.4957,2.66259 -2.49835,-10.93062 -3.99736,-16.39593 -1.49901,-5.4653 12.15863,-5.88571 18.48777,-8.82857 6.32915,-2.94286 -6.4957,-7.98776 -9.49371,-11.77144 -2.99802,-3.78367 -2.49836,-8.5483 -3.49769,-13.03266 -0.99934,-4.48435 -13.32452,6.72654 -20.48645,10.08981 -7.16194,3.36326 -13.32452,-5.88572 -19.98678,-8.82858 -6.66226,-2.94286 9.66027,9.52926 14.49041,14.29388 z"
                 transform="matrix(1.3732535,0,0,1.2468082,-74.444799,-82.109757)" />
            </g>
          </g>
        </g>
      </g>
    </g>
  </g>
</svg>
